<svg width="48" height="48" viewBox="0 0 48 48" fill="none" xmlns="http://www.w3.org/2000/svg">
<mask id="mask0_66_190" style="mask-type:alpha" maskUnits="userSpaceOnUse" x="0" y="0" width="48" height="48">
<rect width="48" height="48" fill="#D9D9D9"/>
</mask>
<g mask="url(#mask0_66_190)">
<path d="M12 40C10.9 40 9.95833 39.6083 9.175 38.825C8.39167 38.0417 8 37.1 8 36C8 34.9 8.39167 33.9583 9.175 33.175C9.95833 32.3917 10.9 32 12 32C13.1 32 14.0417 32.3917 14.825 33.175C15.6083 33.9583 16 34.9 16 36C16 37.1 15.6083 38.0417 14.825 38.825C14.0417 39.6083 13.1 40 12 40ZM12 28C10.9 28 9.95833 27.6083 9.175 26.825C8.39167 26.0417 8 25.1 8 24C8 22.9 8.39167 21.9583 9.175 21.175C9.95833 20.3917 10.9 20 12 20C13.1 20 14.0417 20.3917 14.825 21.175C15.6083 21.9583 16 22.9 16 24C16 25.1 15.6083 26.0417 14.825 26.825C14.0417 27.6083 13.1 28 12 28ZM12 16C10.9 16 9.95833 15.6083 9.175 14.825C8.39167 14.0417 8 13.1 8 12C8 10.9 8.39167 9.95833 9.175 9.175C9.95833 8.39167 10.9 8 12 8C13.1 8 14.0417 8.39167 14.825 9.175C15.6083 9.95833 16 10.9 16 12C16 13.1 15.6083 14.0417 14.825 14.825C14.0417 15.6083 13.1 16 12 16ZM24 16C22.9 16 21.9583 15.6083 21.175 14.825C20.3917 14.0417 20 13.1 20 12C20 10.9 20.3917 9.95833 21.175 9.175C21.9583 8.39167 22.9 8 24 8C25.1 8 26.0417 8.39167 26.825 9.175C27.6083 9.95833 28 10.9 28 12C28 13.1 27.6083 14.0417 26.825 14.825C26.0417 15.6083 25.1 16 24 16ZM36 16C34.9 16 33.9583 15.6083 33.175 14.825C32.3917 14.0417 32 13.1 32 12C32 10.9 32.3917 9.95833 33.175 9.175C33.9583 8.39167 34.9 8 36 8C37.1 8 38.0417 8.39167 38.825 9.175C39.6083 9.95833 40 10.9 40 12C40 13.1 39.6083 14.0417 38.825 14.825C38.0417 15.6083 37.1 16 36 16ZM24 28C22.9 28 21.9583 27.6083 21.175 26.825C20.3917 26.0417 20 25.1 20 24C20 22.9 20.3917 21.9583 21.175 21.175C21.9583 20.3917 22.9 20 24 20C25.1 20 26.0417 20.3917 26.825 21.175C27.6083 21.9583 28 22.9 28 24C28 25.1 27.6083 26.0417 26.825 26.825C26.0417 27.6083 25.1 28 24 28ZM26 40V33.85L37.05 22.85C37.35 22.55 37.6833 22.3333 38.05 22.2C38.4167 22.0667 38.7833 22 39.15 22C39.55 22 39.9333 22.075 40.3 22.225C40.6667 22.375 41 22.6 41.3 22.9L43.15 24.75C43.4167 25.05 43.625 25.3833 43.775 25.75C43.925 26.1167 44 26.4833 44 26.85C44 27.2167 43.9333 27.5917 43.8 27.975C43.6667 28.3583 43.45 28.7 43.15 29L32.15 40H26ZM29 37H30.9L36.95 30.9L36.05 29.95L35.1 29.05L29 35.1V37ZM36.05 29.95L35.1 29.05L36.95 30.9L36.05 29.95Z" fill="#60A052"/>
</g>
</svg>
