<?xml version="1.0" encoding="UTF-8"?>
<svg version="1.1" xmlns="http://www.w3.org/2000/svg" width="320" height="300">
<path d="M0 0 C105.6 0 211.2 0 320 0 C320 99 320 198 320 300 C214.4 300 108.8 300 0 300 C0 201 0 102 0 0 Z " fill="#F9F2DF" transform="translate(0,0)"/>
<path d="M0 0 C105.6 0 211.2 0 320 0 C320 99 320 198 320 300 C214.4 300 108.8 300 0 300 C0 201 0 102 0 0 Z M264.57288516 18.84591699 C241.26691072 20.39349208 217.97037637 20.25961483 194.62295365 20.20278788 C188.49454609 20.19007436 182.36613539 20.18909411 176.23771667 20.18673706 C164.69325828 20.18058168 153.14883889 20.16425354 141.60439748 20.14403808 C128.43576447 20.12149123 115.26712935 20.11063898 102.09848177 20.10064721 C75.0656331 20.07988024 48.03281876 20.04482315 21 20 C20.89297589 28.55892189 21.05610969 36.98474945 21.70152473 45.52398014 C23.4211569 68.43292538 23.26140537 91.34119969 23.20256042 114.30123138 C23.19096243 119.57610787 23.19062312 124.8509651 23.18920898 130.12585449 C23.17881534 145.43808109 23.15089328 160.75029177 23.125 176.0625 C23.08375 210.361875 23.0425 244.66125 23 280 C114.08 280 205.16 280 299 280 C299 268.44647858 298.97913514 256.98217625 298.58006454 245.45036137 C297.99345268 228.21252079 297.84999048 210.98987548 297.8656745 193.74352956 C297.8677628 190.6954444 297.86646669 187.64736375 297.86524117 184.59927839 C297.86232671 177.34962781 297.86421226 170.09999065 297.86962891 162.8503418 C297.87441755 156.36986533 297.87448665 149.88941195 297.86962891 143.40893555 C297.83901492 101.59478133 298.12454135 59.80590582 299 18 C287.47627364 17.75908586 276.07391516 18.07117861 264.57288516 18.84591699 Z " fill="#F3F2D9" transform="translate(0,0)"/>
<path d="M0 0 C2.61449177 0.00028294 5.22898362 0.00012205 7.84347534 -0.0004425 C13.41427665 -0.00096062 18.98506603 0.0021105 24.55586433 0.00779533 C32.60977385 0.01600865 40.66367773 0.01853548 48.71759098 0.01978333 C61.79236208 0.02195862 74.86712685 0.02857689 87.94189453 0.03808594 C100.62418588 0.04729981 113.3064755 0.05436107 125.98876953 0.05859375 C126.77375527 0.05885647 127.55874101 0.0591192 128.3675142 0.05938988 C132.30652721 0.06069515 136.24554023 0.0619588 140.18455327 0.06320179 C172.7349379 0.07352687 205.28531477 0.0911031 237.83569336 0.11352539 C237.83569336 0.77352539 237.83569336 1.43352539 237.83569336 2.11352539 C240.14569336 2.11352539 242.45569336 2.11352539 244.83569336 2.11352539 C244.83569336 2.77352539 244.83569336 3.43352539 244.83569336 4.11352539 C242.85569336 4.44352539 240.87569336 4.77352539 238.83569336 5.11352539 C239.16569336 7.42352539 239.49569336 9.73352539 239.83569336 12.11352539 C241.81569336 12.44352539 243.79569336 12.77352539 245.83569336 13.11352539 C245.17569336 13.77352539 244.51569336 14.43352539 243.83569336 15.11352539 C242.51569336 15.11352539 241.19569336 15.11352539 239.83569336 15.11352539 C239.99038086 15.77803711 240.14506836 16.44254883 240.30444336 17.12719727 C240.94182849 20.71014528 241.15569108 24.26711577 241.33569336 27.89477539 C241.37629883 28.66237183 241.4169043 29.42996826 241.45874023 30.2208252 C241.54449395 31.85814397 241.62843286 33.49555865 241.71069336 35.13305664 C241.83111355 37.52264484 241.95784316 39.91182477 242.08569336 42.30102539 C242.31213615 46.61215843 242.51474383 50.9240839 242.70684814 55.23687744 C242.7932248 57.16535601 242.88257226 59.09370366 242.97479248 61.02191162 C244.13071863 85.71868959 243.99202273 110.42907684 243.96426392 135.14665985 C243.96066564 138.76641418 243.95906831 142.38616451 243.95800781 146.00592041 C243.94176765 190.71356802 243.53963226 235.41170749 242.83569336 280.11352539 C243.49569336 280.11352539 244.15569336 280.11352539 244.83569336 280.11352539 C244.83569336 280.77352539 244.83569336 281.43352539 244.83569336 282.11352539 C244.17569336 282.11352539 243.51569336 282.11352539 242.83569336 282.11352539 C242.83569336 284.75352539 242.83569336 287.39352539 242.83569336 290.11352539 C244.15569336 290.11352539 245.47569336 290.11352539 246.83569336 290.11352539 C246.83569336 293.08352539 246.83569336 296.05352539 246.83569336 299.11352539 C221.04405133 299.17615309 195.2524011 299.21594043 169.46069336 299.23852539 C168.49747854 299.239394 167.53426373 299.2402626 166.54186058 299.24115753 C109.38192093 299.29129616 52.23873962 299.0247501 -4.91430664 298.11352539 C-5.66571143 298.10157796 -6.41711622 298.08963053 -7.19129086 298.07732105 C-25.84939141 297.78019214 -44.5070792 297.46149049 -63.16430664 297.11352539 C-62.83430664 296.45352539 -62.50430664 295.79352539 -62.16430664 295.11352539 C-60.55338748 295.11490808 -60.55338748 295.11490808 -58.90992451 295.1163187 C-32.60121841 295.13866311 -6.29251356 295.15501913 20.01620007 295.16533756 C32.73964465 295.17046196 45.46308291 295.17742978 58.18652344 295.18896484 C69.29512691 295.19903097 80.40372579 295.20540673 91.51233369 295.20761389 C97.37708086 295.20890106 103.24181494 295.21185691 109.10655785 295.21925545 C136.03423515 295.25194723 162.92275181 295.05027992 189.83569336 294.11352539 C188.90186136 294.11444718 187.96802937 294.11536898 187.00589943 294.1163187 C163.92495908 294.13885534 140.84402021 294.15510663 117.76307106 294.16533756 C106.59977442 294.17042089 95.43648525 294.17733171 84.27319336 294.18896484 C33.11793777 294.24124507 -18.01820183 294.16367394 -69.16430664 293.11352539 C-67.48292747 291.03008477 -66.60302776 290.18634152 -63.91939861 289.7409299 C-62.59056731 289.74263864 -62.59056731 289.74263864 -61.23489094 289.7443819 C-60.21176628 289.73840876 -59.18864163 289.73243561 -58.1345132 289.72628146 C-57.00709482 289.73501999 -55.87967644 289.74375851 -54.71809387 289.75276184 C-53.52313331 289.75019857 -52.32817274 289.74763529 -51.09700125 289.74499434 C-47.77432295 289.74089847 -44.45217151 289.75030699 -41.12955678 289.76532853 C-37.54879891 289.77825801 -33.96805795 289.77390162 -30.38728333 289.7716217 C-24.18145181 289.77004701 -17.97571475 289.77947666 -11.769907 289.79633522 C-2.79731532 289.82069413 6.17523058 289.8285273 15.14785174 289.8322992 C29.70455077 289.83886857 44.26119943 289.85884289 58.81787109 289.88720703 C72.96012113 289.91473504 87.1023575 289.93597477 101.24462891 289.94873047 C102.11604344 289.94951864 102.98745798 289.95030681 103.88527902 289.95111886 C108.25681584 289.95503392 112.62835275 289.95882505 116.99988973 289.96255457 C153.27852651 289.99366561 189.55710602 290.04651462 225.83569336 290.11352539 C225.83569336 287.47352539 225.83569336 284.83352539 225.83569336 282.11352539 C133.43569336 282.11352539 41.03569336 282.11352539 -54.16430664 282.11352539 C-54.65930664 284.09352539 -54.65930664 284.09352539 -55.16430664 286.11352539 C-55.49430664 284.79352539 -55.82430664 283.47352539 -56.16430664 282.11352539 C-58.47430664 282.11352539 -60.78430664 282.11352539 -63.16430664 282.11352539 C-63.16430664 284.09352539 -63.16430664 286.07352539 -63.16430664 288.11352539 C-64.15430664 287.78352539 -65.14430664 287.45352539 -66.16430664 287.11352539 C-66.16430664 285.46352539 -66.16430664 283.81352539 -66.16430664 282.11352539 C-67.48430664 282.11352539 -68.80430664 282.11352539 -70.16430664 282.11352539 C-70.16430664 281.45352539 -70.16430664 280.79352539 -70.16430664 280.11352539 C-68.84430664 280.11352539 -67.52430664 280.11352539 -66.16430664 280.11352539 C-66.19390409 279.46800909 -66.22350155 278.82249279 -66.2539959 278.15741539 C-67.34601359 253.23450641 -67.31268336 228.31846577 -67.29863214 203.37614107 C-67.29606165 197.36862935 -67.29845849 191.36111898 -67.30001831 185.35360718 C-67.30182457 175.28985311 -67.29947254 165.22610645 -67.29467773 155.16235352 C-67.2892173 143.5684 -67.29101689 131.97446403 -67.29650414 120.38051093 C-67.30105476 110.35935524 -67.30167691 100.33820481 -67.29906547 90.31704843 C-67.29751607 84.36008121 -67.29727237 78.40312222 -67.30060196 72.44615555 C-67.3035099 66.85621639 -67.30145176 61.26629974 -67.2957077 55.67636299 C-67.29439658 53.63833592 -67.29474583 51.60030693 -67.29697037 49.56228065 C-67.30838491 38.03449216 -67.06105342 26.610063 -66.16430664 15.11352539 C-67.15430664 14.78352539 -68.14430664 14.45352539 -69.16430664 14.11352539 C-68.17430664 13.45352539 -67.18430664 12.79352539 -66.16430664 12.11352539 C-65.42824165 8.54582987 -65.42824165 8.54582987 -65.16430664 5.11352539 C-64.83430664 5.11352539 -64.50430664 5.11352539 -64.16430664 5.11352539 C-63.83430664 7.42352539 -63.50430664 9.73352539 -63.16430664 12.11352539 C-60.85430664 12.44352539 -58.54430664 12.77352539 -56.16430664 13.11352539 C-56.16430664 13.44352539 -56.16430664 13.77352539 -56.16430664 14.11352539 C-58.80430664 14.11352539 -61.44430664 14.11352539 -64.16430664 14.11352539 C-64.13434097 15.21177139 -64.10437531 16.3100174 -64.07350159 17.44154358 C-62.77002566 67.15294321 -63.04541282 116.88141788 -63.09228003 166.60523379 C-63.10366167 178.90362905 -63.109007 191.20202501 -63.11398304 203.50042427 C-63.12430919 228.70479714 -63.14178479 253.90916066 -63.16430664 279.11352539 C-60.85430664 279.11352539 -58.54430664 279.11352539 -56.16430664 279.11352539 C-56.16430664 231.26352539 -56.16430664 183.41352539 -56.16430664 134.11352539 C-55.50430664 133.78352539 -54.84430664 133.45352539 -54.16430664 133.11352539 C-53.16747004 136.10403521 -53.03861234 138.06580711 -53.037323 141.18803406 C-53.03450317 142.23763306 -53.03168335 143.28723206 -53.02877808 144.36863708 C-53.03080231 145.52025833 -53.03282654 146.67187958 -53.03491211 147.85839844 C-53.03315979 149.07183929 -53.03140747 150.28528015 -53.02960205 151.53549194 C-53.02594886 154.8689487 -53.02681551 158.20234356 -53.02998114 161.53579688 C-53.03251644 165.03703376 -53.03016325 168.53826802 -53.02859497 172.039505 C-53.02677357 177.93340527 -53.02917555 183.82729304 -53.03393555 189.72119141 C-53.03934532 196.49706211 -53.0376395 203.27290258 -53.03210914 210.04877251 C-53.02753773 215.88682933 -53.02694797 221.72487714 -53.02954781 227.56293517 C-53.03109284 231.03984782 -53.03135446 234.51674638 -53.02801132 237.99365807 C-53.00487861 265.7250653 -53.00487861 265.7250653 -54.16430664 279.11352539 C-53.50430664 279.11352539 -52.84430664 279.11352539 -52.16430664 279.11352539 C-52.16874786 278.35030975 -52.17318909 277.58709412 -52.17776489 276.80075073 C-52.23430676 266.53004865 -52.26879697 256.25935956 -52.28930664 245.98852539 C-52.29187469 244.71204195 -52.29187469 244.71204195 -52.29449463 243.40977097 C-52.3529463 210.32286202 -51.85126375 177.25517644 -51.16430664 144.17602539 C-51.14039101 143.02395348 -51.11647537 141.87188156 -51.09183502 140.68489838 C-50.79603013 126.4941404 -50.48682094 112.30370069 -50.16430664 98.11352539 C-49.83430664 98.11352539 -49.50430664 98.11352539 -49.16430664 98.11352539 C-49.13372506 115.53018415 -49.11333697 132.94684347 -49.10180664 150.36352539 C-49.10095062 151.64744549 -49.1000946 152.93136559 -49.09921265 154.25419235 C-49.07997928 186.89799159 -49.11899924 219.53618417 -49.66430664 252.17602539 C-49.67626446 252.89242691 -49.68822227 253.60882843 -49.70054245 254.34693909 C-49.83966674 262.60278923 -49.99668501 270.8582074 -50.16430664 279.11352539 C-48.92179138 279.04287872 -47.67927612 278.97223206 -46.39910889 278.89944458 C-26.58416971 277.87718167 -6.77148279 277.96602997 13.06363964 277.97919989 C18.19243098 277.98178098 23.32122078 277.97936903 28.45001221 277.97781372 C37.09387537 277.97600256 45.73772995 277.97836431 54.3815918 277.9831543 C63.11987876 277.98794254 71.85814863 277.98801808 80.59643555 277.9831543 C129.01897449 277.9568148 177.42352795 278.01238154 225.83569336 279.11352539 C225.77510742 278.07583008 225.71452148 277.03813477 225.65209961 275.96899414 C224.10533692 248.11979935 223.67641644 220.24958435 223.70136786 192.36308146 C223.70399006 188.47788345 223.70152723 184.59268717 223.69998169 180.70748901 C223.69818543 174.18495245 223.70049577 167.66242738 223.70532227 161.13989258 C223.71013918 154.55687719 223.71015144 147.97388451 223.70532227 141.39086914 C223.66048636 78.56414574 223.66048636 78.56414574 224.28100586 50.91821289 C224.31012873 49.5869808 224.31012873 49.5869808 224.33983994 48.22885513 C224.57658497 37.83272108 225.0471275 27.48324489 225.83569336 17.11352539 C224.99984459 17.16927719 224.99984459 17.16927719 224.14710999 17.22615528 C186.38457999 19.71893682 148.84850866 20.51949733 111.02020264 20.32960522 C103.98895596 20.29497458 96.95769581 20.27931122 89.92638397 20.26449621 C75.56273259 20.23384486 61.19921542 20.18173998 46.83569336 20.11352539 C46.83569336 19.45352539 46.83569336 18.79352539 46.83569336 18.11352539 C47.66971853 18.10717748 47.66971853 18.10717748 48.52059269 18.10070133 C62.16475925 17.99656831 75.80888211 17.88777136 89.45297337 17.77418613 C96.05164202 17.71938876 102.65031529 17.66604592 109.24902344 17.61621094 C115.63575912 17.56792023 122.02245057 17.51556898 128.409132 17.46058464 C130.82672946 17.44044953 133.24433889 17.42169533 135.66195869 17.40445137 C151.07410172 17.29338198 166.44281467 16.90535448 181.83569336 16.11352539 C180.87567413 16.11444718 179.91565491 16.11536898 178.92654419 16.1163187 C155.41523468 16.13865717 131.90392657 16.15501637 108.39260864 16.16533756 C97.02207051 16.17046326 85.65153945 16.17743364 74.28100586 16.18896484 C64.35428805 16.19902691 54.42757536 16.2054058 44.50085258 16.20761389 C39.25945271 16.20890172 34.01806748 16.21186208 28.77667236 16.21925545 C5.1086705 16.25138641 -18.51357172 16.07436391 -42.16430664 15.11352539 C-42.16430664 14.45352539 -42.16430664 13.79352539 -42.16430664 13.11352539 C46.27569336 12.78352539 134.71569336 12.45352539 225.83569336 12.11352539 C226.16569336 9.47352539 226.49569336 6.83352539 226.83569336 4.11352539 C226.27317014 4.11390511 225.71064691 4.11428483 225.13107753 4.11467606 C191.76192929 4.13707348 158.39278295 4.15422172 125.02362888 4.16459072 C121.01339255 4.16584137 117.00315623 4.1671357 112.99291992 4.16845703 C112.19458289 4.16871934 111.39624585 4.16898165 110.57371679 4.16925191 C97.66170134 4.1735985 84.74969037 4.18148048 71.83767757 4.19067819 C58.58031442 4.20004285 45.3229536 4.20558696 32.06558728 4.20761389 C23.89075695 4.20898327 15.71593925 4.21330217 7.54111281 4.22144186 C1.9288091 4.22674403 -3.68348812 4.22832181 -9.29579416 4.22702677 C-12.52961611 4.2263888 -15.76341151 4.227893 -18.99723053 4.23273087 C-22.51381637 4.23773247 -26.03034887 4.23649993 -29.54693604 4.23377991 C-31.0586661 4.23814917 -31.0586661 4.23814917 -32.60093617 4.2426067 C-39.49760121 4.22826475 -46.30057369 3.77780365 -53.16430664 3.11352539 C-52.83430664 2.45352539 -52.50430664 1.79352539 -52.16430664 1.11352539 C-34.76675258 0.27348972 -17.41604846 -0.02688399 0 0 Z " fill="#6CEA5E" transform="translate(73.164306640625,0.886474609375)"/>
<path d="M0 0 C7.39309933 1.26221755 15.01762083 1.15098032 22.49711609 1.15821838 C23.60090679 1.16315636 24.7046975 1.16809434 25.84193641 1.17318195 C29.51140347 1.18844358 33.18085319 1.1968866 36.8503418 1.20532227 C39.49232732 1.21490972 42.13430887 1.22487815 44.77629089 1.23532104 C50.44936599 1.2569902 56.12244347 1.27516919 61.79553795 1.29092598 C69.99771353 1.31371232 78.19986407 1.34184258 86.40201829 1.37124526 C99.71193012 1.41881428 113.02185226 1.46210715 126.33178711 1.50268555 C139.25529785 1.54209506 152.17879947 1.58353421 165.10229492 1.62768555 C166.29873221 1.63177196 166.29873221 1.63177196 167.51933994 1.63594092 C171.52109417 1.64962129 175.52284827 1.66334139 179.52460229 1.67708123 C212.68304934 1.79087791 245.84151538 1.89772412 279 2 C279.09765625 8.15234375 279.09765625 8.15234375 279 10 C278 11 278 11 276.15737766 11.1241985 C275.34363699 11.12381878 274.52989632 11.12343906 273.69149685 11.12304783 C272.75595579 11.12503888 271.82041472 11.12702993 270.85652393 11.12908131 C269.81666263 11.12616847 268.77680133 11.12325563 267.70542908 11.12025452 C266.61018262 11.12110894 265.51493616 11.12196337 264.38650042 11.12284368 C260.68595477 11.12450171 256.98545363 11.11897186 253.28491211 11.11352539 C250.64440305 11.11324356 248.00389678 11.11335705 245.36338806 11.1139679 C239.66284149 11.11449332 233.96230632 11.1113446 228.26176262 11.10573006 C220.01964187 11.09761754 211.77752667 11.09500009 203.53540237 11.09374207 C190.16446759 11.09155115 176.79353889 11.08489001 163.42260742 11.07543945 C150.43074575 11.06626635 137.43888574 11.05918502 124.44702148 11.05493164 C123.64676939 11.05466892 122.8465173 11.05440619 122.02201515 11.05413551 C118.0075547 11.05283051 113.99309423 11.05156679 109.97863376 11.05032361 C76.65241809 11.03994977 43.32620979 11.0223304 10 11 C10 11.66 10 12.32 10 13 C91.18 13 172.36 13 256 13 C256 13.33 256 13.66 256 14 C222.64967202 15.89418341 189.38958467 16.25760573 155.9911499 16.1373291 C149.53252539 16.1163942 143.07388345 16.10763658 136.61523438 16.09765625 C124.07677961 16.0765855 111.53839845 16.04272951 99 16 C99 16.66 99 17.32 99 18 C76.12069935 18.17375331 53.25074619 17.865722 30.375 17.5 C29.6268465 17.48804218 28.87869301 17.47608437 28.10786819 17.46376419 C18.73850435 17.31360162 9.36922049 17.15887178 0 17 C0.09087891 18.29172119 0.18175781 19.58344238 0.27539062 20.91430664 C0.62161704 25.87714653 0.95345623 30.84087532 1.28173828 35.80493164 C1.42354426 37.92139386 1.56885412 40.03762527 1.71826172 42.15356445 C3.95239792 73.89501654 2.88062857 105.65104238 2.2020874 137.43255615 C1.96242857 148.66578023 1.73549211 159.89926194 1.51171875 171.1328125 C1.48920296 172.26126713 1.46668716 173.38972176 1.44348907 174.55237198 C0.98514959 197.65868946 0.64956997 220.76583141 0.375 243.875 C0.35963133 245.164133 0.35963133 245.164133 0.34395218 246.47930908 C0.22304166 256.65280618 0.10779754 266.82635499 0 277 C-0.66 277 -1.32 277 -2 277 C-1.99861731 275.8972898 -1.99861731 275.8972898 -1.99720669 274.77230263 C-1.97514541 256.90452779 -1.95858549 239.03675565 -1.94818783 221.16897011 C-1.94302627 212.52833188 -1.93598621 203.88770272 -1.92456055 195.24707031 C-1.91460946 187.71801001 -1.90814555 180.18895628 -1.90591151 172.65988958 C-1.90460512 168.67141047 -1.90152382 164.68295017 -1.89426994 160.69447708 C-1.88750304 156.94351828 -1.88538442 153.19258611 -1.88689232 149.44162178 C-1.88661629 148.06211134 -1.88461513 146.68260004 -1.88079453 145.30309486 C-1.87584692 143.42518374 -1.87760488 141.54725846 -1.87974548 139.66934204 C-1.87882369 138.61665445 -1.8779019 137.56396687 -1.87695217 136.47937965 C-1.83344321 133.99783909 -1.83344321 133.99783909 -3 132 C-3.33 179.85 -3.66 227.7 -4 277 C-6.31 277 -8.62 277 -11 277 C-11.13204607 250.56929792 -11.26249003 224.13858832 -11.39115143 197.70786953 C-11.45095936 185.42885918 -11.51125132 173.1498516 -11.57275391 160.87084961 C-12.09799691 55.9073289 -12.09799691 55.9073289 -12 12 C-12 11.34 -12 10.68 -12 10 C-12.66 10 -13.32 10 -14 10 C-14 7.36 -14 4.72 -14 2 C-15.32 2 -16.64 2 -18 2 C-18 1.34 -18 0.68 -18 0 C-15.75265248 -0.39058179 -13.50195579 -0.76192958 -11.25 -1.125 C-9.99703125 -1.33382813 -8.7440625 -1.54265625 -7.453125 -1.7578125 C-3.75332851 -2.01730049 -3.13043527 -1.57157077 0 0 Z " fill="#79EA69" transform="translate(21,3)"/>
<path d="M0 0 C2.61449177 0.00028294 5.22898362 0.00012205 7.84347534 -0.0004425 C13.41427665 -0.00096062 18.98506603 0.0021105 24.55586433 0.00779533 C32.60977385 0.01600865 40.66367773 0.01853548 48.71759098 0.01978333 C61.79236208 0.02195862 74.86712685 0.02857689 87.94189453 0.03808594 C100.62418588 0.04729981 113.3064755 0.05436107 125.98876953 0.05859375 C126.77375527 0.05885647 127.55874101 0.0591192 128.3675142 0.05938988 C132.30652721 0.06069515 136.24554023 0.0619588 140.18455327 0.06320179 C172.7349379 0.07352687 205.28531477 0.0911031 237.83569336 0.11352539 C237.83569336 0.77352539 237.83569336 1.43352539 237.83569336 2.11352539 C240.14569336 2.11352539 242.45569336 2.11352539 244.83569336 2.11352539 C244.83569336 2.77352539 244.83569336 3.43352539 244.83569336 4.11352539 C242.85569336 4.44352539 240.87569336 4.77352539 238.83569336 5.11352539 C239.16569336 7.42352539 239.49569336 9.73352539 239.83569336 12.11352539 C241.81569336 12.44352539 243.79569336 12.77352539 245.83569336 13.11352539 C245.17569336 13.77352539 244.51569336 14.43352539 243.83569336 15.11352539 C242.51569336 15.11352539 241.19569336 15.11352539 239.83569336 15.11352539 C239.99038086 15.77803711 240.14506836 16.44254883 240.30444336 17.12719727 C240.94182849 20.71014528 241.15569108 24.26711577 241.33569336 27.89477539 C241.37629883 28.66237183 241.4169043 29.42996826 241.45874023 30.2208252 C241.54449395 31.85814397 241.62843286 33.49555865 241.71069336 35.13305664 C241.83111355 37.52264484 241.95784316 39.91182477 242.08569336 42.30102539 C242.31211503 46.61225399 242.5149694 50.92426599 242.7071228 55.2371521 C242.79330397 57.16519245 242.88222089 59.09311235 242.9737854 61.02090454 C244.12134855 85.73701642 244.03264596 110.46952187 244.02416992 135.20656586 C244.02318581 138.8288131 244.02417855 142.45105611 244.02539062 146.07330322 C244.03090665 190.44308267 243.25470567 234.76767955 241.83569336 279.11352539 C241.50569336 279.11352539 241.17569336 279.11352539 240.83569336 279.11352539 C240.83661515 278.13381303 240.83753695 277.15410067 240.83848667 276.14470005 C240.860827 252.14901804 240.8771852 228.1533374 240.88750553 204.15764713 C240.89263082 192.5528482 240.8996004 180.9480562 240.91113281 169.34326172 C240.92119615 159.2118094 240.92757406 149.08036211 240.92978185 138.94890493 C240.93106948 133.59960299 240.93402843 128.25031541 240.94142342 122.90101814 C240.97373079 98.61804916 240.78877978 74.37988852 239.83569336 50.11352539 C239.83707605 51.50880494 239.83707605 51.50880494 239.83848667 52.93227196 C239.86088788 75.7794731 239.87721326 98.62667279 239.88750553 121.47388268 C239.89261765 132.52352671 239.89956078 143.57316341 239.91113281 154.62280273 C239.92123782 164.27640623 239.92758351 173.9300044 239.92978185 183.58361304 C239.93106273 188.67442526 239.93397523 193.76522227 239.94142342 198.85602951 C239.9795617 225.95700349 239.6148487 253.02342948 238.83569336 280.11352539 C238.17569336 279.78352539 237.51569336 279.45352539 236.83569336 279.11352539 C236.83569336 191.99352539 236.83569336 104.87352539 236.83569336 15.11352539 C233.86569336 15.44352539 230.89569336 15.77352539 227.83569336 16.11352539 C227.83569336 20.73352539 227.83569336 25.35352539 227.83569336 30.11352539 C227.17569336 30.44352539 226.51569336 30.77352539 225.83569336 31.11352539 C225.83569336 26.49352539 225.83569336 21.87352539 225.83569336 17.11352539 C223.80167358 17.2483709 223.80167358 17.2483709 221.7265625 17.38594055 C184.77454145 19.78940576 148.03490477 20.51541316 111.02020264 20.32960522 C103.98895596 20.29497458 96.95769581 20.27931122 89.92638397 20.26449621 C75.56273259 20.23384486 61.19921542 20.18173998 46.83569336 20.11352539 C46.83569336 19.45352539 46.83569336 18.79352539 46.83569336 18.11352539 C47.66971853 18.10717748 47.66971853 18.10717748 48.52059269 18.10070133 C62.16475925 17.99656831 75.80888211 17.88777136 89.45297337 17.77418613 C96.05164202 17.71938876 102.65031529 17.66604592 109.24902344 17.61621094 C115.63575912 17.56792023 122.02245057 17.51556898 128.409132 17.46058464 C130.82672946 17.44044953 133.24433889 17.42169533 135.66195869 17.40445137 C151.07410172 17.29338198 166.44281467 16.90535448 181.83569336 16.11352539 C180.87567413 16.11444718 179.91565491 16.11536898 178.92654419 16.1163187 C155.41523468 16.13865717 131.90392657 16.15501637 108.39260864 16.16533756 C97.02207051 16.17046326 85.65153945 16.17743364 74.28100586 16.18896484 C64.35428805 16.19902691 54.42757536 16.2054058 44.50085258 16.20761389 C39.25945271 16.20890172 34.01806748 16.21186208 28.77667236 16.21925545 C5.1086705 16.25138641 -18.51357172 16.07436391 -42.16430664 15.11352539 C-42.16430664 14.45352539 -42.16430664 13.79352539 -42.16430664 13.11352539 C46.27569336 12.78352539 134.71569336 12.45352539 225.83569336 12.11352539 C226.16569336 9.47352539 226.49569336 6.83352539 226.83569336 4.11352539 C226.27317014 4.11390511 225.71064691 4.11428483 225.13107753 4.11467606 C191.76192929 4.13707348 158.39278295 4.15422172 125.02362888 4.16459072 C121.01339255 4.16584137 117.00315623 4.1671357 112.99291992 4.16845703 C112.19458289 4.16871934 111.39624585 4.16898165 110.57371679 4.16925191 C97.66170134 4.1735985 84.74969037 4.18148048 71.83767757 4.19067819 C58.58031442 4.20004285 45.3229536 4.20558696 32.06558728 4.20761389 C23.89075695 4.20898327 15.71593925 4.21330217 7.54111281 4.22144186 C1.9288091 4.22674403 -3.68348812 4.22832181 -9.29579416 4.22702677 C-12.52961611 4.2263888 -15.76341151 4.227893 -18.99723053 4.23273087 C-22.51381637 4.23773247 -26.03034887 4.23649993 -29.54693604 4.23377991 C-31.0586661 4.23814917 -31.0586661 4.23814917 -32.60093617 4.2426067 C-39.49760121 4.22826475 -46.30057369 3.77780365 -53.16430664 3.11352539 C-52.83430664 2.45352539 -52.50430664 1.79352539 -52.16430664 1.11352539 C-34.76675258 0.27348972 -17.41604846 -0.02688399 0 0 Z " fill="#5EE951" transform="translate(73.164306640625,0.886474609375)"/>
<path d="M0 0 C92.73 0 185.46 0 281 0 C281 2.64 281 5.28 281 8 C188.6 8 96.2 8 1 8 C0.67 5.36 0.34 2.72 0 0 Z " fill="#F4F2DB" transform="translate(19,5)"/>
<path d="M0 0 C0 87.45 0 174.9 0 265 C-2.64 265 -5.28 265 -8 265 C-8 177.88 -8 90.76 -8 1 C-4 0 -4 0 0 0 Z " fill="#F1F2D8" transform="translate(310,16)"/>
<path d="M0 0 C0.33 0 0.66 0 1 0 C1.33 2.31 1.66 4.62 2 7 C4.31 7.33 6.62 7.66 9 8 C9 8.33 9 8.66 9 9 C6.36 9 3.72 9 1 9 C1.02996567 10.098246 1.05993134 11.196492 1.09080505 12.32801819 C2.39428098 62.03941782 2.11889382 111.76789249 2.07202661 161.4917084 C2.06064497 173.79010366 2.05529964 186.08849962 2.05032361 198.38689888 C2.03999745 223.59127175 2.02252185 248.79563526 2 274 C4.31 274 6.62 274 9 274 C9 226.15 9 178.3 9 129 C9.66 128.67 10.32 128.34 11 128 C11.9968366 130.99050981 12.1256943 132.95228172 12.12698364 136.07450867 C12.12980347 137.12410767 12.13262329 138.17370667 12.13552856 139.25511169 C12.13350433 140.40673294 12.1314801 141.55835419 12.12939453 142.74487305 C12.13114685 143.9583139 12.13289917 145.17175476 12.13470459 146.42196655 C12.13835778 149.75542331 12.13749113 153.08881817 12.1343255 156.42227149 C12.1317902 159.92350837 12.1341434 163.42474263 12.13571167 166.92597961 C12.13753307 172.81987988 12.13513109 178.71376765 12.13037109 184.60766602 C12.12496132 191.38353672 12.12666714 198.15937719 12.1321975 204.93524712 C12.13676891 210.77330394 12.13735867 216.61135175 12.13475883 222.44940978 C12.1332138 225.92632243 12.13295218 229.40322098 12.13629532 232.88013268 C12.15942803 260.61153991 12.15942803 260.61153991 11 274 C11.66 274 12.32 274 13 274 C12.99555878 273.23678436 12.99111755 272.47356873 12.98654175 271.68722534 C12.92999988 261.41652326 12.89550967 251.14583417 12.875 240.875 C12.87243195 239.59851656 12.87243195 239.59851656 12.86981201 238.29624557 C12.81136034 205.20933663 13.31304289 172.14165105 14 139.0625 C14.02391563 137.91042809 14.04783127 136.75835617 14.07247162 135.57137299 C14.36827651 121.38061501 14.6774857 107.1901753 15 93 C15.33 93 15.66 93 16 93 C16.03058158 110.41665876 16.05096967 127.83331808 16.0625 145.25 C16.06335602 146.5339201 16.06421204 147.81784019 16.06509399 149.14066696 C16.08432736 181.7844662 16.0453074 214.42265878 15.5 247.0625 C15.48804218 247.77890152 15.47608437 248.49530304 15.46376419 249.2334137 C15.32464 257.48925786 15.17033298 265.7447394 15 274 C21.93 274 28.86 274 36 274 C36 274.33 36 274.66 36 275 C37.98 275.33 39.96 275.66 42 276 C42 276.33 42 276.66 42 277 C31.77 277 21.54 277 11 277 C10.505 278.98 10.505 278.98 10 281 C9.67 279.68 9.34 278.36 9 277 C6.69 277 4.38 277 2 277 C2 278.98 2 280.96 2 283 C1.01 282.67 0.02 282.34 -1 282 C-1 280.35 -1 278.7 -1 277 C-2.32 277 -3.64 277 -5 277 C-5 276.34 -5 275.68 -5 275 C-3.68 275 -2.36 275 -1 275 C-1.02959745 274.3544837 -1.05919491 273.7089674 -1.08968925 273.04389 C-2.18170695 248.12098102 -2.14837672 223.20494038 -2.1343255 198.26261568 C-2.13175501 192.25510395 -2.13415185 186.24759359 -2.13571167 180.24008179 C-2.13751793 170.17632772 -2.1351659 160.11258106 -2.13037109 150.04882812 C-2.12491065 138.45487461 -2.12671025 126.86093864 -2.1321975 115.26698554 C-2.13674812 105.24582985 -2.13737027 95.22467942 -2.13475883 85.20352304 C-2.13320943 79.24655582 -2.13296573 73.28959683 -2.13629532 67.33263016 C-2.13920326 61.742691 -2.13714512 56.15277435 -2.13140106 50.5628376 C-2.13008994 48.52481053 -2.13043919 46.48678154 -2.13266373 44.44875526 C-2.14407827 32.92096677 -1.89674678 21.49653761 -1 10 C-1.99 9.67 -2.98 9.34 -4 9 C-3.01 8.34 -2.02 7.68 -1 7 C-0.26393501 3.43230448 -0.26393501 3.43230448 0 0 Z " fill="#66E958" transform="translate(8,6)"/>
<path d="M0 0 C2.31 0 4.62 0 7 0 C7 85.8 7 171.6 7 260 C4.69 260 2.38 260 0 260 C0 174.2 0 88.4 0 0 Z " fill="#F9F2DF" transform="translate(10,20)"/>
<path d="M0 0 C92.07 0 184.14 0 279 0 C279.33 0.99 279.66 1.98 280 3 C273.15531912 5.43434335 266.20352209 5.67551205 259 6.0625 C258.27968597 6.10324646 257.55937195 6.14399292 256.81723022 6.18597412 C239.99663127 7.11526412 223.15391379 7.36397342 206.3125 7.625 C205.00369873 7.6455545 203.69489746 7.66610901 202.34643555 7.68728638 C172.18851086 8.1435601 142.04552438 8.06113096 111.88917923 7.59614182 C108.1070533 7.53835066 104.32488678 7.48333682 100.54272461 7.42797852 C93.43931835 7.32361153 86.33594969 7.21688995 79.23259258 7.10923481 C71.12078737 6.98641736 63.00894199 6.8663582 54.89709282 6.74648476 C38.26468332 6.50063868 21.63232532 6.25147815 5 6 C5.33 5.34 5.66 4.68 6 4 C7.61091916 4.00138269 7.61091916 4.00138269 9.25438213 4.00279331 C35.56308823 4.02513772 61.87179308 4.04149374 88.18050671 4.05181217 C100.90395129 4.05693657 113.62738956 4.06390439 126.35083008 4.07543945 C137.45943355 4.08550558 148.56803243 4.09188134 159.67664033 4.09408849 C165.5413875 4.09537567 171.40612158 4.09833152 177.27086449 4.10573006 C204.19854179 4.13842184 231.08705845 3.93675453 258 3 C257.066168 3.00092179 256.13233601 3.00184359 255.17020607 3.00279331 C232.08926572 3.02532995 209.00832685 3.04158124 185.9273777 3.05181217 C174.76408106 3.0568955 163.60079189 3.06380632 152.4375 3.07543945 C101.28224441 3.12771968 50.14610481 3.05014855 -1 2 C-0.67 1.34 -0.34 0.68 0 0 Z " fill="#63E955" transform="translate(5,292)"/>
<path d="M0 0 C3.96 0 7.92 0 12 0 C12 0.99 12 1.98 12 3 C8.91721341 3.31880223 5.83391842 3.62998055 2.75 3.9375 C1.91597656 4.02451172 1.08195312 4.11152344 0.22265625 4.20117188 C-19.03033274 6.09836422 -38.38412441 6.25301701 -57.71246338 6.53222656 C-60.39685851 6.57211093 -63.08117405 6.61634579 -65.76549911 6.66066074 C-69.10925152 6.71521881 -72.45306295 6.76563496 -75.796875 6.81640625 C-76.94702087 6.83514297 -78.09716675 6.8538797 -79.28216553 6.8731842 C-104.55970592 7.22860099 -129.83567074 6.98586644 -155.11082077 6.59614182 C-158.8929467 6.53835066 -162.67511322 6.48333682 -166.45727539 6.42797852 C-173.56068165 6.32361153 -180.66405031 6.21688995 -187.76740742 6.10923481 C-195.87921263 5.98641736 -203.99105801 5.8663582 -212.10290718 5.74648476 C-228.73531668 5.50063868 -245.36767468 5.25147815 -262 5 C-261.67 4.34 -261.34 3.68 -261 3 C-259.9260539 3.00092179 -258.85210779 3.00184359 -257.74561787 3.00279331 C-231.43691177 3.02513772 -205.12820692 3.04149374 -178.81949329 3.05181217 C-166.09604871 3.05693657 -153.37261044 3.06390439 -140.64916992 3.07543945 C-129.54056645 3.08550558 -118.43196757 3.09188134 -107.32335967 3.09408849 C-101.4586125 3.09537567 -95.59387842 3.09833152 -89.72913551 3.10573006 C-68.11383612 3.13187418 -46.50628702 3.12991594 -24.8972168 2.55639648 C-23.75400858 2.5271887 -23.75400858 2.5271887 -22.58770525 2.49739087 C-15.01527405 2.29717552 -7.51600448 1.99720823 0 1 C0 0.67 0 0.34 0 0 Z " fill="#6CEA5D" transform="translate(272,293)"/>
<path d="M0 0 C0.33 0 0.66 0 1 0 C3.70510573 31.95206749 3.16339614 64.12590166 3.12857056 96.16284943 C3.124968 99.90827003 3.1233741 103.65368676 3.12231445 107.39910889 C3.10645378 152.60463494 2.71981372 197.80044338 2 243 C1.34 243 0.68 243 0 243 C0 162.81 0 82.62 0 0 Z " fill="#E4F1CB" transform="translate(312,38)"/>
<path d="M0 0 C6.34995377 0.0063558 12.6999083 0.00684681 19.04986477 0.00802541 C29.66276296 0.01075615 40.27565451 0.01695347 50.88854885 0.02595448 C61.79805369 0.03519717 72.70755649 0.04224401 83.61706448 0.0464623 C84.29461541 0.04672502 84.97216635 0.04698774 85.67024913 0.04725843 C89.07084267 0.04856389 92.47143622 0.0498275 95.87202978 0.05107033 C123.88340067 0.06136153 151.89476335 0.07898354 179.90612698 0.10139394 C179.90612698 0.43139394 179.90612698 0.76139394 179.90612698 1.10139394 C169.34767042 1.81490063 158.79874922 2.36862755 148.21862698 2.65608144 C147.07856197 2.68748534 147.07856197 2.68748534 145.91546535 2.71952367 C121.34233263 3.37039124 96.75627329 3.25563635 72.17655516 3.23196745 C67.25690352 3.2272319 62.33725527 3.22489963 57.41760159 3.22370839 C9.57582072 3.20988272 -38.25781931 2.86908126 -86.09387302 2.10139394 C-86.09387302 1.77139394 -86.09387302 1.44139394 -86.09387302 1.10139394 C-57.39506152 0.04446445 -28.71545237 -0.03372042 0 0 Z " fill="#E3F1CB" transform="translate(99.09387302398682,293.8986060619354)"/>
<path d="M0 0 C84.81 0 169.62 0 257 0 C257 0.33 257 0.66 257 1 C228.95207817 2.46147489 200.9941469 3.3078465 172.90884018 3.19723511 C169.0814655 3.18385075 165.25409212 3.17857451 161.42669964 3.17279625 C107.61710587 3.08602945 53.8067646 2.52486378 0 2 C0 1.34 0 0.68 0 0 Z " fill="#E9F1D0" transform="translate(20,16)"/>
<path d="M0 0 C0.33 0 0.66 0 1 0 C3.54349845 33.13540757 3.16218838 66.37046299 3.12857056 99.58015823 C3.12497347 103.59208511 3.1233389 107.60400819 3.12231445 111.61593628 C3.10865958 156.41570769 2.77830114 201.206705 2 246 C1.34 246 0.68 246 0 246 C0 164.82 0 83.64 0 0 Z " fill="#E5F1CC" transform="translate(19,34)"/>
<path d="M0 0 C3.96 0 7.92 0 12 0 C12 0.66 12 1.32 12 2 C16.95 2 21.9 2 27 2 C27 2.33 27 2.66 27 3 C-11.32747695 5.55647402 -49.41995351 6.40881935 -87.81549072 6.21607983 C-94.8467374 6.18144919 -101.87799755 6.16578583 -108.90930939 6.15097082 C-123.27296077 6.12031947 -137.63647794 6.06821459 -152 6 C-152 5.34 -152 4.68 -152 4 C-150.0285199 3.98786972 -150.0285199 3.98786972 -148.01721191 3.97549438 C-135.43257778 3.89690848 -122.84803713 3.80892224 -110.26352692 3.71247292 C-103.79875181 3.66320818 -97.33398787 3.6168933 -90.86914062 3.578125 C-60.52939748 3.39390345 -30.2849137 2.91714621 0 1 C0 0.67 0 0.34 0 0 Z " fill="#5FE951" transform="translate(272,15)"/>
<path d="M0 0 C2.0529894 3.0794841 2.24921619 3.68734632 2.24050903 7.15715027 C2.24325836 8.00268967 2.24600769 8.84822906 2.24884033 9.71939087 C2.24164978 10.64367889 2.23445923 11.56796692 2.22705078 12.52026367 C2.22734283 13.49605881 2.22763489 14.47185394 2.22793579 15.47721863 C2.22654072 18.70755864 2.21097108 21.93766895 2.1953125 25.16796875 C2.191583 27.40570449 2.18873573 29.64344186 2.18673706 31.88117981 C2.17909564 37.77489723 2.15944272 43.6685163 2.1373291 49.56219482 C2.11688166 55.57465281 2.1077377 61.58712666 2.09765625 67.59960938 C2.07619736 79.39978283 2.04205523 91.19988324 2 103 C0.515 103.495 0.515 103.495 -1 104 C-1.0231207 90.58774207 -1.04091369 77.17548883 -1.05181217 63.76321507 C-1.0570416 57.53606528 -1.06414033 51.30892908 -1.07543945 45.08178711 C-1.08626621 39.07773135 -1.09227638 33.07368871 -1.09487724 27.06962395 C-1.09673188 24.7733839 -1.10035321 22.47714461 -1.10573006 20.18091011 C-1.11293768 16.97679186 -1.11399106 13.7727285 -1.11352539 10.56860352 C-1.11712067 9.60907272 -1.12071594 8.64954193 -1.12442017 7.66093445 C-1.1230455 6.79290192 -1.12167084 5.92486938 -1.12025452 5.03053284 C-1.12117631 4.27189721 -1.1220981 3.51326159 -1.12304783 2.731637 C-1 1 -1 1 0 0 Z " fill="#5AE94C" transform="translate(18,134)"/>
<path d="M0 0 C0.495 1.98 0.495 1.98 1 4 C-38.6 4 -78.2 4 -119 4 C-119 3.67 -119 3.34 -119 3 C-117.93267891 2.98786972 -117.93267891 2.98786972 -116.84379578 2.97549438 C-107.791527 2.87071599 -98.73946706 2.75296172 -89.6875 2.625 C-88.60540127 2.60975218 -88.60540127 2.60975218 -87.50144196 2.59419632 C-68.90728184 2.32878628 -50.36303482 1.91037159 -31.80419922 0.66503906 C-21.18668296 -0.04126188 -10.63679147 -0.22237195 0 0 Z " fill="#F1F2D8" transform="translate(299,296)"/>
<path d="M0 0 C0.33 0 0.66 0 1 0 C5.75699755 85.88215526 5.75699755 85.88215526 3 120 C2.67 120 2.34 120 2 120 C1.98969254 119.35917984 1.97938507 118.71835968 1.96876526 118.05812073 C1.39446902 80.68192428 1.39446902 80.68192428 0.5 43.3125 C0.46463135 42.0119165 0.4292627 40.71133301 0.39282227 39.37133789 C0.35600342 38.1930542 0.31918457 37.01477051 0.28125 35.80078125 C0.25095703 34.81247314 0.22066406 33.82416504 0.18945312 32.8059082 C-0.01207929 29.82109888 -0.46200561 26.94127196 -1 24 C-1.33 24 -1.66 24 -2 24 C-2.02698189 22.37509046 -2.04638757 20.75005367 -2.0625 19.125 C-2.07410156 18.22007813 -2.08570313 17.31515625 -2.09765625 16.3828125 C-2 14 -2 14 -1 12 C-0.77141886 9.9625237 -0.58975722 7.91959697 -0.4375 5.875 C-0.35371094 4.77929688 -0.26992188 3.68359375 -0.18359375 2.5546875 C-0.12300781 1.71164063 -0.06242187 0.86859375 0 0 Z " fill="#66E958" transform="translate(313,21)"/>
<path d="M0 0 C0.33 0 0.66 0 1 0 C1.79421401 9.06183571 2.24699972 18.11092821 2.50268555 27.20092773 C2.56214908 29.3001118 2.62740586 31.39905778 2.69335938 33.49804688 C2.97976092 43.00084181 3.05019052 52.49327788 3 62 C2.67 62 2.34 62 2 62 C1.67 75.2 1.34 88.4 1 102 C0.67 102 0.34 102 0 102 C0 68.34 0 34.68 0 0 Z " fill="#D3F0BC" transform="translate(312,38)"/>
<path d="M0 0 C3.96 0 7.92 0 12 0 C12 0.66 12 1.32 12 2 C16.95 2 21.9 2 27 2 C27 2.33 27 2.66 27 3 C19.33638135 3.43389832 11.67236886 3.8602704 4.00805664 4.28173828 C1.40802835 4.42556758 -1.19190988 4.57103582 -3.79174805 4.71826172 C-17.87106765 5.5144379 -31.89451508 6.275802 -46 6 C-46 5.67 -46 5.34 -46 5 C-44.02 4.67 -42.04 4.34 -40 4 C-40 3.67 -40 3.34 -40 3 C-20.2 2.01 -20.2 2.01 0 1 C0 0.67 0 0.34 0 0 Z " fill="#7AEA6A" transform="translate(272,15)"/>
<path d="M0 0 C2.81496741 0.45275278 2.81496741 0.45275278 5.75 0.625 C7.22726563 0.73714844 7.22726563 0.73714844 8.734375 0.8515625 C9.48203125 0.90054687 10.2296875 0.94953125 11 1 C11 1.33 11 1.66 11 2 C4.565 2.495 4.565 2.495 -2 3 C-2.33 5.31 -2.66 7.62 -3 10 C-6.63 10 -10.26 10 -14 10 C-14 7.36 -14 4.72 -14 2 C-15.32 2 -16.64 2 -18 2 C-18 1.34 -18 0.68 -18 0 C-15.75265248 -0.39058179 -13.50195579 -0.76192958 -11.25 -1.125 C-9.99703125 -1.33382813 -8.7440625 -1.54265625 -7.453125 -1.7578125 C-3.87037215 -2.00909155 -2.97491687 -1.70691952 0 0 Z " fill="#68E959" transform="translate(21,3)"/>
<path d="M0 0 C23.76 0 47.52 0 72 0 C72 0.33 72 0.66 72 1 C58.83953392 1.9793444 45.69139498 2.30522474 32.5 2.5625 C30.40494161 2.60581583 28.30988944 2.64943363 26.21484375 2.69335938 C21.14329399 2.79904654 16.07167817 2.90067431 11 3 C11 2.67 11 2.34 11 2 C7.37 1.67 3.74 1.34 0 1 C0 0.67 0 0.34 0 0 Z " fill="#EDF2D4" transform="translate(207,294)"/>
<path d="M0 0 C0 2.31 0 4.62 0 7 C-5.94 7 -11.88 7 -18 7 C-18 5.35 -18 3.7 -18 2 C-15.36 2 -12.72 2 -10 2 C-10 2.99 -10 3.98 -10 5 C-9.34 5 -8.68 5 -8 5 C-8 3.68 -8 2.36 -8 1 C-5.23735711 0.40267181 -2.83967231 0 0 0 Z " fill="#F8F2DE" transform="translate(320,293)"/>
<path d="M0 0 C0.33 0 0.66 0 1 0 C1.28866456 5.21016491 1.57333056 10.42052832 1.85449219 15.63110352 C1.95043184 17.39906531 2.04741315 19.16697092 2.14550781 20.93481445 C3.18928963 39.77081595 3.18928963 39.77081595 3 49 C2.34 49 1.68 49 1 49 C0.93941406 47.69804688 0.87882812 46.39609375 0.81640625 45.0546875 C0.73195438 43.32811601 0.64730874 41.601554 0.5625 39.875 C0.52318359 39.0190625 0.48386719 38.163125 0.44335938 37.28125 C0.21843598 32.78278208 -0.13540883 28.43193793 -1 24 C-1.33 24 -1.66 24 -2 24 C-2.02698189 22.37509046 -2.04638757 20.75005367 -2.0625 19.125 C-2.07410156 18.22007813 -2.08570313 17.31515625 -2.09765625 16.3828125 C-2 14 -2 14 -1 12 C-0.77141886 9.9625237 -0.58975722 7.91959697 -0.4375 5.875 C-0.35371094 4.77929688 -0.26992188 3.68359375 -0.18359375 2.5546875 C-0.12300781 1.71164063 -0.06242187 0.86859375 0 0 Z " fill="#6BEA5C" transform="translate(313,21)"/>
<path d="M0 0 C2.64 0 5.28 0 8 0 C8 1.65 8 3.3 8 5 C5.69 5 3.38 5 1 5 C1 21.5 1 38 1 55 C0.67 55 0.34 55 0 55 C0 36.85 0 18.7 0 0 Z " fill="#82EB71" transform="translate(9,15)"/>
<path d="M0 0 C0.66 0 1.32 0 2 0 C2 8.91 2 17.82 2 27 C1.01 27 0.02 27 -1 27 C-1.02886537 22.68751391 -1.04675255 18.37505238 -1.0625 14.0625 C-1.07087891 12.83080078 -1.07925781 11.59910156 -1.08789062 10.33007812 C-1.09111328 9.16025391 -1.09433594 7.99042969 -1.09765625 6.78515625 C-1.10289307 5.70113525 -1.10812988 4.61711426 -1.11352539 3.50024414 C-1 1 -1 1 0 0 Z " fill="#6EEA5F" transform="translate(18,237)"/>
<path d="M0 0 C2.64 0 5.28 0 8 0 C8 2.97 8 5.94 8 9 C5.36 9 2.72 9 0 9 C0 6.03 0 3.06 0 0 Z " fill="#E1F1C9" transform="translate(302,5)"/>
<path d="M0 0 C2.31 0 4.62 0 7 0 C7 2.64 7 5.28 7 8 C4.69 8 2.38 8 0 8 C0 5.36 0 2.72 0 0 Z " fill="#F8F2DE" transform="translate(10,5)"/>
<path d="M0 0 C2.31 0 4.62 0 7 0 C7 2.31 7 4.62 7 7 C4.69 7 2.38 7 0 7 C0 4.69 0 2.38 0 0 Z " fill="#FAF3E0" transform="translate(302,284)"/>
<path d="M0 0 C2.64 0 5.28 0 8 0 C8 1.65 8 3.3 8 5 C5.36 5 2.72 5 0 5 C0 3.35 0 1.7 0 0 Z " fill="#B0EE9C" transform="translate(9,15)"/>
<path d="M0 0 C6.6 0 13.2 0 20 0 C19.67 0.99 19.34 1.98 19 3 C16.36 3 13.72 3 11 3 C11 2.67 11 2.34 11 2 C7.37 1.67 3.74 1.34 0 1 C0 0.67 0 0.34 0 0 Z " fill="#DDF0C5" transform="translate(207,294)"/>
<path d="M0 0 C0.33 0 0.66 0 1 0 C1.19676277 8.29683005 1.25943749 15.95075394 -1 24 C-1.33 24 -1.66 24 -2 24 C-2.02698189 22.37509046 -2.04638757 20.75005367 -2.0625 19.125 C-2.07410156 18.22007813 -2.08570313 17.31515625 -2.09765625 16.3828125 C-2 14 -2 14 -1 12 C-0.77141886 9.9625237 -0.58975722 7.91959697 -0.4375 5.875 C-0.35371094 4.77929688 -0.26992188 3.68359375 -0.18359375 2.5546875 C-0.12300781 1.71164063 -0.06242187 0.86859375 0 0 Z " fill="#80EB6F" transform="translate(313,21)"/>
</svg>
